# xmcd
#
# Track frame offsets: 
#        150
#        29720
#        51832
#        74315
#        95127
#        98672
#        116952
#        138332
#        157217
#        176635
#
# Disc length: 2664 seconds
#
# Revision: 0
# Processed by: cddbd v1.5.2PL0 Copyright (c) Steve Scherf et al.
# Submitted via: ExactAudioCopy v1.0b2
#
DISCID=960a660a
DTITLE=The Love Unlimited Orchestra Presents Mr. Webster Lewis - Welco
DTITLE=me Aboard
DYEAR=1981
DGENRE=Soul
TTITLE0=Welcome Aboard
TTITLE1=Dreams
TTITLE2=Night Life In The City
TTITLE3=Lift Your Voice And Say
TTITLE4=Welcome Aboard (Reprise)
TTITLE5=Easin'
TTITLE6=Antiqua Blue
TTITLE7=Wind
TTITLE8=Strange
TTITLE9=My Fantasies
EXTD=
EXTT0=
EXTT1=
EXTT2=
EXTT3=
EXTT4=
EXTT5=
EXTT6=
EXTT7=
EXTT8=
EXTT9=
PLAYORDER=
